<?xml version="1.0" encoding="UTF-8" standalone="no"?>
<svg
   xmlns:dc="http://purl.org/dc/elements/1.1/"
   xmlns:cc="http://creativecommons.org/ns#"
   xmlns:rdf="http://www.w3.org/1999/02/22-rdf-syntax-ns#"
   xmlns:svg="http://www.w3.org/2000/svg"
   xmlns="http://www.w3.org/2000/svg"
   viewBox="0 0 1046.2133 657.98669"
   height="657.98669"
   width="1046.2133"
   xml:space="preserve"
   id="svg2"
   version="1.1"><metadata
     id="metadata8"><rdf:RDF><cc:Work
         rdf:about=""><dc:format>image/svg+xml</dc:format><dc:type
           rdf:resource="http://purl.org/dc/dcmitype/StillImage" /></cc:Work></rdf:RDF></metadata><defs
     id="defs6" /><g
     transform="matrix(1.3333333,0,0,-1.3333333,0,657.98667)"
     id="g10"><g
       transform="scale(0.1)"
       id="g12"><path
         id="path14"
         style="fill:#393536;fill-opacity:1;fill-rule:evenodd;stroke:none"
         d="M 926.531,516.32 C 259.359,418.098 302.047,352.746 946.578,226.535 1659.59,64.9609 2818.09,-37.6563 4019.66,13.0273 c 175.09,4.8633 731.13,87.1997 1011.92,170.7347 904.6,301.074 1281.45,744.48 2338.09,825.368 l -408.02,286.29 c -248.88,-43.67 -539.68,-34.94 -657.57,7.86 L 3097.44,988.898 1737.76,666.66 926.531,516.32 v 0" /><path
         id="path16"
         style="fill:#231f20;fill-opacity:1;fill-rule:evenodd;stroke:none"
         d="m 2658.41,1016.01 1017.57,-80.092 c 36.4,-164.246 286.6,-148.184 464.29,-147.246 l 1595.9,352.988 947.65,272.66 253.16,-29.86 381.28,249.15 392.66,217.21 c 65.82,37.83 105.46,80.6 87.47,134.16 40.63,594.5 -180.17,946.24 -579.84,1131.9 L 3424.89,2817.5 2658.41,1016.01 v 0" /><path
         id="path18"
         style="fill:#231f20;fill-opacity:1;fill-rule:evenodd;stroke:none"
         d="m 264.926,1438.77 c 164.758,-136.3 447.496,-213.5 786.614,-283.18 287.75,-78.66 614.32,-145.03 965.96,-160.91 C 1822.25,658.945 1453.48,385.793 937.016,516.328 468.402,655.207 292.563,1010.92 264.926,1438.77 v 0" /><path
         id="path20"
         style="fill:#393536;fill-opacity:1;fill-rule:evenodd;stroke:none"
         d="m 431.586,1334.24 c -61.441,39.74 -110.606,62.86 -166.66,104.53 50.054,-601.836 329.027,-816.368 672.09,-922.45 -361.453,226.551 -506.18,622.18 -505.43,817.92 v 0" /><path
         id="path22"
         style="fill:#231f20;fill-opacity:1;fill-rule:evenodd;stroke:none"
         d="m 7369.67,1009.12 c 200.25,23.67 319.1,309.11 341.25,841.69 17.04,409.74 -76.46,655.42 -248.79,751.04 -178.24,-372.42 -338.59,-739.66 -516.82,-1112.06 -27.63,-225.65 59.91,-429.9 169.67,-460.15 l 254.69,-20.52 v 0" /><path
         id="path24"
         style="fill:#4f4c4c;fill-opacity:1;fill-rule:evenodd;stroke:none"
         d="m 7558.96,2432.41 c 58.65,5.34 131.37,-239.04 131.9,-592.69 0.49,-332.38 -120.95,-696.11 -186.9,-709.35 -123.79,-12.45 -168.76,228.14 -159.81,641.85 26.74,357.83 86.64,648.49 214.81,660.19 v 0" /><path
         id="path26"
         style="fill:#d3d2d2;fill-opacity:1;fill-rule:evenodd;stroke:none"
         d="m 7522.29,2296.18 c 87.79,-1.09 122.77,-212.68 117.89,-500.39 -4.97,-293.57 -105.79,-547.97 -183.38,-544.91 -74.96,2.95 -124.07,231.03 -112.66,521.34 11.45,291.39 80.37,528.52 178.15,523.96 v 0" /><path
         id="path28"
         style="fill:#e9e9e9;fill-opacity:1;fill-rule:evenodd;stroke:none"
         d="m 7421.1,2198.67 c 155.62,-155.42 120.88,-684.9 -35.04,-840.38 -71.29,135.19 -55.21,625.6 35.04,840.38 v 0" /><path
         id="path30"
         style="fill:#231f20;fill-opacity:1;fill-rule:evenodd;stroke:none"
         d="m 7459.41,2222.82 c 65.98,-50.24 83.29,-216.36 75.98,-441.09 -12.6,-279.73 -59.97,-429.82 -149.33,-423.44 88.82,-85.35 178.3,35.69 210.68,413.23 28.03,327.05 -74.88,556.17 -137.33,451.3 v 0" /><path
         id="path32"
         style="fill:#231f20;fill-opacity:1;fill-rule:evenodd;stroke:none"
         d="m 7462.83,2089.15 c 50.88,-1.74 84.15,-141.85 74.29,-312.95 -9.87,-171.08 -59.13,-308.37 -110.01,-306.63 -50.9,1.74 -84.15,141.84 -74.29,312.92 9.86,171.12 59.11,308.4 110.01,306.66" /><path
         id="path34"
         style="fill:#e9e9e9;fill-opacity:1;fill-rule:evenodd;stroke:none"
         d="m 7488.15,2087.84 c 56.92,-1.73 94.14,-141.84 83.1,-312.95 -11.03,-171.08 -66.14,-308.37 -123.06,-306.63 -56.94,1.74 -94.14,141.84 -83.1,312.92 11.04,171.12 66.12,308.4 123.06,306.66" /><path
         id="path36"
         style="fill:#ffffff;fill-opacity:1;fill-rule:evenodd;stroke:none"
         d="m 7374.84,1800.12 c 18.39,144.54 59.09,285.99 113.3,287.72 56.49,-10.68 69.45,-159.89 74.73,-212.14 -24.88,39.21 -39.62,-8.54 -42.34,-54.68 -10.92,165.37 -98.56,95.99 -145.69,-20.9 v 0" /><path
         id="path38"
         style="fill:#393536;fill-opacity:1;fill-rule:evenodd;stroke:none"
         d="m 7554.2,1891.13 c 13.73,-0.54 22.96,-49.61 20.59,-109.61 -2.36,-60 -15.41,-108.2 -29.15,-107.66 -13.73,0.53 -22.94,49.62 -20.58,109.61 2.36,60.01 15.41,108.2 29.14,107.66" /><path
         id="path40"
         style="fill:#ffffff;fill-opacity:1;fill-rule:evenodd;stroke:none"
         d="m 7548.59,1875.7 c 9.89,-0.47 16.55,-42.99 14.84,-94.99 -1.7,-51.98 -11.12,-93.74 -21.01,-93.27 -9.91,0.47 -16.55,42.99 -14.85,94.97 1.71,51.98 11.11,93.75 21.02,93.29" /><path
         id="path42"
         style="fill:#393536;fill-opacity:1;fill-rule:evenodd;stroke:none"
         d="m 7374.84,1800.12 c 30.79,77.46 80.55,-22.99 149.91,12.29 -4.37,-42.92 -3.6,-75.74 4.4,-117.89 -2.95,-17.29 -103.7,-150.44 -122.7,-152.35 -29.74,37.55 -43.77,107.09 -31.61,257.95 v 0" /><path
         id="path44"
         style="fill:#231f20;fill-opacity:1;fill-rule:evenodd;stroke:none"
         d="m 4769.93,143.691 c -509.02,7.903 -900.27,401.289 -855.31,1164.769 106.05,704.5 435.52,1078.86 1034.6,1054.74 C 5390.96,2315 5743.66,1966.07 5744.8,1231.87 5666.38,519.602 5269.75,151.535 4769.93,143.691 v 0" /><path
         id="path46"
         style="fill:#4f4c4c;fill-opacity:1;fill-rule:evenodd;stroke:none"
         d="m 4989.34,321.406 c -357.68,0.032 -646.51,330.645 -600.14,955.194 43.14,580.92 306.5,899.01 725.94,864.95 311.42,-25.28 572,-325.82 558.22,-927.76 -12.93,-564.981 -349.32,-892.411 -684.02,-892.384 v 0" /><path
         id="path48"
         style="fill:#d3d2d2;fill-opacity:1;fill-rule:evenodd;stroke:none"
         d="m 4979.03,499.668 c -291.08,4.602 -526.21,266.711 -488.46,770.492 35.11,468.59 285.14,724.35 590.85,697.69 253.33,-22.09 468.76,-262.89 454.35,-748.36 -14,-471.842 -347.5,-723.123 -556.74,-719.822 v 0" /><path
         id="path50"
         style="fill:#231f20;fill-opacity:1;fill-rule:evenodd;stroke:none"
         d="m 4950.12,573.008 c -258.92,4.172 -445.35,240.82 -434.49,698.982 53.87,422.79 253,648.24 525.57,632.96 224.41,-28.91 410.82,-238.37 404.15,-678.91 -5.65,-374.106 -309.1,-656.028 -495.23,-653.032 v 0" /><path
         id="path52"
         style="fill:#4f4c4c;fill-opacity:1;fill-rule:evenodd;stroke:none"
         d="m 4891.3,625.461 c -223.91,3.828 -404.76,221.719 -375.73,640.549 27.01,389.57 218.79,594.04 454.49,580.04 194.05,-26.5 348.99,-218.39 349.49,-622.16 -34.44,-391.702 -267.3,-601.175 -428.25,-598.429 v 0" /><path
         id="path54"
         style="fill:#d3d2d2;fill-opacity:1;fill-rule:evenodd;stroke:none"
         d="m 4940.72,734.191 c -198.08,3.262 -358.05,189.129 -332.37,546.409 23.89,332.3 193.53,506.72 402.04,494.78 171.66,-22.61 327.88,-187.65 309.16,-530.72 -18.19,-333.75 -236.46,-512.824 -378.83,-510.469 v 0" /><path
         id="path56"
         style="fill:#4f4c4c;fill-opacity:1;fill-rule:evenodd;stroke:none"
         d="m 4922.95,798.633 c -179.36,9.355 -324.69,159.601 -301.39,461.087 21.66,280.42 175.5,427.6 364.57,417.53 155.65,-19.09 294.62,-156.91 280.33,-447.86 -14.34,-284.281 -214.49,-426.128 -343.51,-430.757 v 0" /><path
         id="path58"
         style="fill:#231f20;fill-opacity:1;fill-rule:evenodd;stroke:none"
         d="m 4939.15,798.633 c -170.9,9.355 -309.36,159.601 -287.16,461.087 20.64,280.42 167.22,427.6 347.35,417.53 148.32,-19.09 266.73,-157.21 267.12,-447.86 C 5240.13,947.441 5062.1,803.262 4939.15,798.633 v 0" /><path
         id="path60"
         style="fill:#f4f4f4;fill-opacity:1;fill-rule:evenodd;stroke:none"
         d="m 4969.6,801.016 c -170.9,9.355 -309.37,159.601 -287.17,461.084 20.65,280.42 167.22,427.61 347.36,417.53 148.32,-19.08 286.91,-159.14 267.11,-447.85 -18.91,-276.038 -204.36,-426.135 -327.3,-430.764 v 0" /><path
         id="path62"
         style="fill:#393536;fill-opacity:1;fill-rule:evenodd;stroke:none"
         d="m 5084.27,1071.46 c -63.33,3.28 -114.65,55.94 -106.43,161.62 7.66,98.29 61.97,149.88 128.74,146.35 54.96,-6.68 103.87,-55.21 99,-156.98 -4.75,-99.17 -75.74,-149.37 -121.31,-150.99 v 0" /><path
         id="path64"
         style="fill:#ffffff;fill-opacity:1;fill-rule:evenodd;stroke:none"
         d="m 5079.93,1081.61 c -58.42,3.03 -105.75,51.6 -98.16,149.09 7.05,90.66 57.16,138.25 118.75,135 50.69,-6.18 95.81,-50.93 91.31,-144.81 -4.39,-91.48 -69.87,-137.77 -111.9,-139.28 v 0" /><path
         id="path66"
         style="fill:#d3d2d2;fill-opacity:1;fill-rule:evenodd;stroke:none"
         d="m 7218.56,3116.88 c -137.84,759.86 -267.19,1286.02 -704.59,1464.26 -916.9,547.59 -2552.03,369.88 -3396.27,67 -386.61,-133.35 -595.45,-707.48 -795.46,-1106.15 L 1782.45,3396.98 C 1608.38,3302.95 1476.98,3171.93 1380.94,3010.25 784.449,3045.02 318.824,2691.19 191.512,1879.28 c -8.282,-157.03 -8.91,-356.21 73.414,-440.5 195.402,-150.07 465.465,-237.91 786.614,-283.18 597.82,-175.424 1195.65,-205.58 1793.47,-115.37 1090.81,27.61 1709.19,251.44 1961.03,1033.14 268.88,779.61 596.83,718.39 805.64,-183.63 101.12,-206.92 139.36,-456.7 122.3,-749.54 l 1363.9,393.62 c 114.95,-5.8 216.32,3.72 222.69,120.51 -13.96,975.92 363.29,1652.24 477.54,343.61 2.38,-31.33 -5.88,-101.66 -87.16,-112.08 l -0.03,-35.05 c 82.71,4.85 118.08,50.26 115.27,151.96 -15.86,685.62 -172.55,1134.18 -607.63,1114.11 v 0" /><path
         id="path68"
         style="fill:#393536;fill-opacity:1;fill-rule:evenodd;stroke:none"
         d="m 5151.37,3653.24 c 134.42,-8.67 216.5,43.73 246.26,157.18 35.93,194.91 51.33,394.57 41.91,599.95 -27.93,179.98 -141.25,290.39 -357.59,316.87 -635.3,52.06 -1270.61,34.51 -1905.92,-102.04 -171.05,-44.87 -313.61,-149.89 -421.79,-327.49 -112.64,-177.05 -202.6,-362.62 -259.36,-560.63 -24.95,-105.3 -4.21,-149.68 54.38,-143.58 1024.62,184.47 1877.91,189.64 2602.11,59.74 v 0" /><path
         id="path70"
         style="fill:#918f90;fill-opacity:1;fill-rule:evenodd;stroke:none"
         d="m 5129.23,3652.15 c 131.98,-8.52 212.57,42.94 241.79,154.33 35.28,191.36 50.4,387.39 41.15,589.04 -27.42,176.71 -138.69,285.12 -351.1,311.1 -623.76,51.13 -1247.53,33.9 -1871.29,-100.18 -167.94,-44.05 -307.91,-147.15 -414.13,-321.54 -110.6,-173.83 -198.92,-356.03 -254.65,-550.45 -24.5,-103.38 -4.13,-146.95 53.4,-140.96 1005.99,181.12 1843.78,186.2 2554.83,58.66 v 0" /><path
         id="path72"
         style="fill:#231f20;fill-opacity:1;fill-rule:evenodd;stroke:none"
         d="m 5122.55,3651.8 c 131.21,-8.46 211.33,42.68 240.37,153.41 35.08,190.26 50.1,385.13 40.91,585.59 -27.27,175.68 -137.87,283.44 -349.04,309.28 -620.09,50.82 -1240.19,33.69 -1860.3,-99.59 -166.95,-43.79 -306.1,-146.29 -411.69,-319.65 -109.95,-172.82 -197.75,-353.95 -253.15,-547.21 -24.36,-102.78 -4.11,-146.09 53.08,-140.14 1000.09,180.06 1832.95,185.1 2539.82,58.31 v 0" /><path
         id="path74"
         style="fill:#deddde;fill-opacity:1;fill-rule:evenodd;stroke:none"
         d="m 6623.28,3223.53 c 30.02,4.43 61.8,-37.89 70.97,-94.51 9.18,-56.64 -7.73,-106.13 -37.75,-110.56 -30,-4.44 -61.79,37.88 -70.96,94.51 -9.17,56.62 7.72,106.12 37.74,110.56" /><path
         id="path76"
         style="fill:#bdbcbc;fill-opacity:1;fill-rule:evenodd;stroke:none"
         d="m 6623.28,3223.53 c 30.02,4.42 61.8,-37.89 70.98,-94.51 9.17,-56.62 -7.74,-106.13 -37.76,-110.56 58.61,26.51 -0.23,192.25 -65.45,173.04 6.98,17.96 18.17,29.95 32.23,32.03 v 0" /><path
         id="path78"
         style="fill:#a7a5a6;fill-opacity:1;fill-rule:evenodd;stroke:none"
         d="m 6623.28,3223.53 c 30.02,4.42 61.8,-37.89 70.98,-94.51 9.17,-56.62 -7.74,-106.13 -37.76,-110.56 79.23,29.46 5.03,223.08 -65.45,173.04 6.98,17.96 18.17,29.95 32.23,32.03 v 0" /><path
         id="path80"
         style="fill:#c8c7c7;fill-opacity:1;fill-rule:evenodd;stroke:none"
         d="m 5779.4,1480.35 979.12,171.79 c 182.55,355.22 172.5,597.12 241.12,892.74 -61.79,-17.62 -146.71,-25.72 -238.12,-31.14 -375.77,-68.32 -792.13,-90.25 -1216.9,-102.55 117.94,-240.81 195.54,-557.51 234.78,-930.84 v 0" /><path
         id="path82"
         style="fill:#e9e9e9;fill-opacity:1;fill-rule:evenodd;stroke:none"
         d="m 5651.11,4245.73 c 16.64,147.31 116.25,245.67 337.16,272.52 126.41,3.9 250.71,-1.27 369.26,-31.43 34.9,-13.19 83.27,-41.05 102.13,-96.24 87.81,-284.99 143.3,-566.77 178.74,-846.53 8.18,-71.36 -7.38,-99.86 -56.97,-100.17 -276.29,9.81 -552.56,19.64 -828.85,29.46 -43.78,4.51 -65.09,21.27 -80.11,41.46 -25.24,64.49 -50.49,128.97 -75.74,193.46 18.13,179.16 36.26,358.31 54.38,537.47 v 0" /><path
         id="path84"
         style="fill:#e9e9e9;fill-opacity:1;fill-rule:evenodd;stroke:none"
         d="m 6709.63,3505.17 c 6.91,-36.1 22.97,-63.55 64.29,-67.18 93.62,-7.86 187.24,-15.71 280.87,-23.58 31.43,-6.21 53.03,8.84 53.03,70.72 -35.35,480.53 -227.28,783.15 -526.35,964.03 -61.77,36.22 -83.33,25.72 -56.33,-41.18 75.54,-295.42 141.64,-594.56 184.49,-902.81 v 0" /><path
         id="path86"
         style="fill:#deddde;fill-opacity:1;fill-rule:evenodd;stroke:none"
         d="M 2292.09,3534.12 1782.45,3396.98 C 1213.59,3084.13 1103.46,2390.08 1332.36,1768.93 l 1427.88,-49.13 c 88.32,85.5 163.36,160 254.31,288.79 375.75,716.21 1099.62,1309.29 2289.27,1351.97 75.67,3.7 73.02,83.34 36.38,126.7 -183.99,257.07 -1935.54,342.22 -3048.11,46.86 v 0" /><path
         id="path88"
         style="fill:#e9e9e9;fill-opacity:1;fill-rule:evenodd;stroke:none"
         d="m 2292.09,3534.12 -509.64,-137.14 c -142.21,-78.22 -255.76,-180.25 -342.5,-299.02 308.24,157.21 1746.53,373.35 2621.29,321.21 248.51,55.56 843.01,184.7 1042.51,188.31 -587.36,160.84 -1933.77,159.71 -2811.66,-73.36 v 0" /><path
         id="path90"
         style="fill:#c8c7c7;fill-opacity:1;fill-rule:evenodd;stroke:none"
         d="m 1892.43,1744.59 c 463.34,-10.88 561.78,24.13 1131.3,723.25 324.74,414.98 1339.4,898.57 2038.59,875.97 -1084.47,-95.87 -1671.1,-802.48 -1835.87,-992.72 -201.92,-233.18 -298.13,-464.73 -527.95,-630 -250.72,1.54 -557.96,16.1 -806.07,23.5 v 0" /><path
         id="path92"
         style="fill:#656263;fill-opacity:1;fill-rule:evenodd;stroke:none"
         d="m 1983.61,2268.71 c 17.59,-20.96 6.3,-66.47 -11.22,-110.94 -53.59,-181.33 19.24,-410.98 -99.99,-409.81 6.64,142.63 19.69,369.77 111.21,520.75 v 0" /><path
         id="path94"
         style="fill:#d3d2d2;fill-opacity:1;fill-rule:evenodd;stroke:none"
         d="m 1244.79,2088.55 c -56.62,356.25 -14.04,664.77 136.15,921.7 -596.491,34.77 -1062.116,-319.06 -1189.428,-1130.97 -8.282,-157.03 -8.91,-356.21 73.414,-440.5 195.402,-150.07 465.465,-237.91 786.614,-283.18 -51.813,175.26 96.87,728.65 193.25,932.95 v 0" /><path
         id="path96"
         style="fill:#ffffff;fill-opacity:1;fill-rule:evenodd;stroke:none"
         d="M 984.695,2289.94 C 1050.57,2011.54 844.277,1758.55 543.203,1806.99 404.996,1839.02 360.82,1937.9 363.48,2069.47 l 621.215,220.47 v 0" /><path
         id="path98"
         style="fill:#e9e9e9;fill-opacity:1;fill-rule:evenodd;stroke:none"
         d="m 984.703,2289.94 c 63.717,-269.3 -156.16,-513.99 -447.383,-467.15 -133.683,30.99 -176.418,126.64 -173.843,253.9 l 621.226,213.25 v 0" /><path
         id="path100"
         style="fill:#393536;fill-opacity:1;fill-rule:evenodd;stroke:none"
         d="m 722.582,2685.73 c 160.598,0 290.878,-194.59 272.09,-453 -14.902,-205 -211.293,-371.93 -371.891,-371.93 -160.59,0 -287.679,175.29 -284.133,380.66 3.547,205.38 139.379,444.27 383.934,444.27 v 0" /><path
         id="path102"
         style="fill:#e2e2e2;fill-opacity:1;fill-rule:evenodd;stroke:none"
         d="m 2845.01,1040.23 c 1090.81,27.61 1709.19,251.44 1961.03,1033.14 269.48,781.33 598.28,718.11 807.01,-189.61 98.72,-203.24 139.71,-451.1 120.93,-743.56 l 65.19,18.8 c -40.58,1291.36 -486.38,1879.32 -1267.91,1884.5 -641.67,-1.23 -1070.69,-342.11 -1505.27,-1014.95 -96.13,-151.62 -246.4,-823.6 -180.98,-988.32 v 0" /><path
         id="path104"
         style="fill:#d3d2d2;fill-opacity:1;fill-rule:evenodd;stroke:none"
         d="m 3838.63,2671.98 c 180.38,0 355.28,-196.37 318.97,-466.13 -5.98,-215.28 -240.94,-389.86 -421.33,-389.86 -180.38,0 -335.82,188.19 -329.85,403.47 5.97,215.3 157.52,452.52 432.21,452.52 v 0" /><path
         id="path106"
         style="fill:#ffffff;fill-opacity:1;fill-rule:evenodd;stroke:none"
         d="m 4116.3,2037.55 c -34.18,-134.71 -159.03,-274.54 -308.14,-310.05 -74.71,-2.72 -149.41,-5.45 -224.12,-8.17 -236.62,60.01 -289.92,353.65 -182.17,562.27 l 714.43,-244.05 v 0" /><path
         id="path108"
         style="fill:#d3d2d2;fill-opacity:1;fill-rule:evenodd;stroke:none"
         d="m 4134.13,2107.08 -732.26,174.52 c -101.17,-174.33 30.87,-469.67 161.41,-514.46 193.46,-70.9 511.57,19.79 570.85,339.94 v 0" /><path
         id="path110"
         style="fill:#393536;fill-opacity:1;fill-rule:evenodd;stroke:none"
         d="m 3824.81,2653.91 c 184.65,0 353.65,-198.83 333.56,-474.71 -15.92,-218.84 -240.75,-397.04 -425.41,-397.04 -184.66,0 -346.63,191.65 -343.76,410.9 2.86,219.24 154.41,460.85 435.61,460.85 v 0" /><path
         id="path112"
         style="fill:#a7a5a6;fill-opacity:1;fill-rule:evenodd;stroke:none"
         d="m 304.852,1447.67 c 213.984,-113.69 459.414,-185.43 736.298,-215.25 563.44,-141.78 1161.83,-178.66 1798.64,-100.3 435.28,-21.44 847.59,-1.53 1177.92,165.97 -1076.64,-39.21 -2215.7,-43.88 -3712.858,149.58 v 0" /><path
         id="path114"
         style="fill:#918f90;fill-opacity:1;fill-rule:evenodd;stroke:none"
         d="m 571.938,1412.92 c 96.773,-57.5 233.421,-104.92 500.672,-128.72 399.03,-124.51 1013.29,-159.34 1789.71,-126.58 458.6,-11.1 810.98,29.19 1026.04,135.93 -1110.22,-28.98 -2217.32,-13.02 -3316.422,119.37 v 0" /><path
         id="path116"
         style="fill:#7b7979;fill-opacity:1;fill-rule:evenodd;stroke:none"
         d="m 1075.95,1148.59 c -85.384,156.36 83.19,647.5 171.61,930.17 l -6.24,37.23 c -105.54,-309.82 -246.613,-787.36 -189.78,-960.39 16.27,-4.67 8.14,-2.34 24.41,-7.01 v 0" /><path
         id="path118"
         style="fill:#7b7979;fill-opacity:1;fill-rule:evenodd;stroke:none"
         d="m 3022.53,2023.67 c -50.57,-155.55 -263.79,-879.52 -155.05,-982.82 -14.98,-0.41 -7.49,-0.19 -22.47,-0.62 -101.6,138.81 78.72,752.16 135.28,925.93 l 42.24,57.51 v 0" /><path
         id="path120"
         style="fill:#e9e9e9;fill-opacity:1;fill-rule:evenodd;stroke:none"
         d="m 3814.87,2639.38 c 180.38,0 360.72,-188.9 331.91,-448.37 0,-207.09 -230.12,-375.02 -410.51,-375.02 -180.38,0 -341.05,181.02 -341.05,388.1 0,207.09 144.96,435.29 419.65,435.29 v 0" /><path
         id="path122"
         style="fill:#ebebeb;fill-opacity:1;fill-rule:evenodd;stroke:none"
         d="m 7218.56,3116.88 c -96.85,-282.52 -144.08,-942.22 -235.85,-1392.26 -2.53,-12.38 -5.09,-24.6 -7.68,-36.65 217.83,-67.11 219.48,-114.99 122.85,-154.15 114.95,-5.8 216.32,3.72 222.69,120.51 -13.96,975.92 363.29,1652.24 477.54,343.61 2.38,-31.33 -5.88,-101.66 -87.16,-112.08 l -0.03,-35.05 c 82.71,4.85 118.08,50.26 115.27,151.96 -15.86,685.62 -172.55,1134.18 -607.63,1114.11 v 0" /><path
         id="path124"
         style="fill:#d3d2d2;fill-opacity:1;fill-rule:evenodd;stroke:none"
         d="m 5779.4,1480.35 c 9.98,-107.14 16.7,-214.24 19.77,-321.35 l 1298.71,374.82 c 94.63,35 99.1,89.72 -122.85,154.15 -295.35,-44.36 -810.01,-149.67 -1195.63,-207.62 v 0" /><path
         id="path126"
         style="fill:#a9c4d0;fill-opacity:1;fill-rule:evenodd;stroke:none"
         d="m 5375.04,4405.35 c -36.2,153.98 -145.68,235.55 -297.03,248.65 -652.83,50.67 -1287.56,34.05 -1891.5,-96.93 -153.88,-36.51 -270.46,-126.88 -361.53,-254.12 -111.71,-169.77 -195.27,-355.49 -256.51,-554.42 -27.82,-91.47 -17.35,-131.6 31.41,-120.37 828.4,199.05 1665.87,193.86 2508.25,78.5 124.26,-26.7 209.8,1.4 232.89,117.75 35,191.96 53.09,388.12 34.02,580.94 v 0" /><path
         id="path128"
         style="fill:#d6f2fc;fill-opacity:1;fill-rule:evenodd;stroke:none"
         d="m 5651.11,4245.73 c 19.3,150.36 137.28,221.66 278.69,234.2 161.2,17.31 346.47,9.6 434.41,-20.93 57.84,-27.32 70.76,-83.15 81.34,-158.67 40.17,-239.28 80.34,-478.54 120.51,-717.83 12.1,-56.86 7.94,-98.87 -19.99,-119.21 -281.51,12.67 -563.03,25.34 -844.55,38.01 -75.76,23.23 -110.48,117.5 -104.79,206.96 18.13,179.16 36.26,358.31 54.38,537.47 v 0" /><path
         id="path130"
         style="fill:#231f20;fill-opacity:1;fill-rule:evenodd;stroke:none"
         d="m 5789.46,4442.48 c -85.92,-41.43 -127.57,-111.96 -138.92,-202.42 20.77,89.42 65.09,153.06 140.66,182.42 l 79.06,-908.07 -208.24,7.91 c 10.55,-8.89 23.55,-16.01 39.5,-21.02 l 170.55,-7.67 29.49,-1.33 -87.7,961.14 -24.4,-10.96 v 0" /><path
         id="path132"
         style="fill:#d6f2fc;fill-opacity:1;fill-rule:evenodd;stroke:none"
         d="m 6709.63,3505.17 c 108.16,-14.4 216.32,-28.79 324.48,-43.18 36.79,2.63 43.53,42.01 36.64,98.13 -92.38,478.04 -311.08,740.54 -545.61,847.86 74.65,-298.02 141.25,-597.82 184.49,-902.81 v 0" /><path
         id="path134"
         style="fill:#ffffff;fill-opacity:1;fill-rule:evenodd;stroke:none"
         d="m 4349.94,3483.63 c -527.53,-112.65 -1024.23,-376.88 -1467.93,-901.72 -339.49,-459.05 -681.4,-930.03 -865.02,-623.88 13.29,-2.42 26.6,-4.85 39.89,-7.27 179.18,-231.95 500.91,248.82 803.37,633.28 398.02,507.5 896.05,804.26 1489.69,899.59 v 0" /><path
         id="path136"
         style="fill:#a7a5a6;fill-opacity:1;fill-rule:evenodd;stroke:none"
         d="m 4823.89,3572.02 c -15.51,25.95 -52.73,39.5 -104.8,44.54 -332.33,29.24 -668.43,48.45 -1011.24,49.78 -326.48,6.18 -555.81,-31.93 -806.9,-154.57 -375.67,-161.43 -942.58,-886.11 -844.07,-1561.01 -13.29,2.42 -26.59,4.85 -39.89,7.27 -23.86,646.79 326.98,1241.77 857.65,1560.22 190.4,99.73 449.85,176.37 832.16,164.87 342.9,-4.24 670.32,-12.62 1009.7,-42.96 100.79,-15.17 137.14,-33.84 107.39,-68.14 v 0" /><path
         id="path138"
         style="fill:#edf9fe;fill-opacity:1;fill-rule:evenodd;stroke:none"
         d="m 6574.77,4203.76 c 152.39,-70.08 233.73,-276.77 295.19,-521.7 8.26,-62.43 -5.75,-75.34 -28.82,-68.11 -51.97,16.22 -103.94,32.44 -155.91,48.66 -30.18,180.68 -67.96,361.03 -110.46,541.15 v 0" /><path
         id="path140"
         style="fill:#edf9fe;fill-opacity:1;fill-rule:evenodd;stroke:none"
         d="m 5845.61,4281.99 c 167.61,6.54 333.64,0.42 497.77,-20.95 l 70.73,-565.88 c -263.41,15.41 -546.73,5.81 -810.13,-17.16 -1.51,34.45 2.4,66.5 4.13,91.79 l 389.72,27.77 c 90.89,6.35 53.68,243.99 -1.96,366.29 -28.51,60.3 -98.82,102.81 -150.26,118.14 v 0" /><path
         id="path142"
         style="fill:#edf9fe;fill-opacity:1;fill-rule:evenodd;stroke:none"
         d="m 5382.72,4255.75 c -131.91,-12.2 -666.18,-15.66 -590.27,-275.04 27.56,-52.58 53.75,-105.85 78.59,-159.81 93.47,-20.3 178.01,-62.98 257.52,-118.19 97.44,-20.67 166.81,4.7 202.29,85.63 -133.68,-11.72 -91.87,374.8 51.57,420.34 0.1,15.7 0.21,31.38 0.3,47.07 v 0" /><path
         id="path144"
         style="fill:#edf9fe;fill-opacity:1;fill-rule:evenodd;stroke:none"
         d="m 2926.18,4294.43 c -46.86,-22.69 -93.46,-56.19 -124.76,-101.38 -111.7,-169.78 -142.93,-246.9 -232.95,-444.52 -27.82,-91.47 -17.35,-131.6 31.41,-120.37 66.35,15.94 132.76,30.57 199.22,43.94 l 127.08,622.33 v 0" /><path
         id="path146"
         style="fill:#edf9fe;fill-opacity:1;fill-rule:evenodd;stroke:none"
         d="m 4012.97,4194.7 c -67.43,26.48 -333.68,183.98 -355.89,45.79 -20.48,-155.2 -40.95,-310.42 -61.43,-465.63 51.78,3.05 103.66,5.57 155.64,7.59 -19.75,38.46 -19.86,93.44 -6.54,159.72 21.37,159.2 110.78,243.37 268.22,252.53 v 0" /><path
         id="path148"
         style="fill:#edf9fe;fill-opacity:1;fill-rule:evenodd;stroke:none"
         d="M 2979.57,4319.99 2842.21,3680.6 c 178.06,34.34 356.52,59.72 535.33,77.06 20.02,148.39 84.41,420.54 118.21,518.37 48.64,139.37 -453.59,69.42 -516.18,43.96 v 0" /><path
         id="path150"
         style="fill:#f4f4f4;fill-opacity:1;fill-rule:evenodd;stroke:none"
         d="m 5727,3759 c 7.06,42.54 34.89,67.28 78.51,78.5 84.61,16.13 169.22,32.28 253.83,48.42 55.5,7.69 90.5,-12.21 100.75,-65.43 1.75,-58.01 3.48,-116.02 5.23,-174.03 -5.09,-36.97 -29.9,-59.75 -78.5,-65.41 -96.83,-5.67 -193.65,-11.33 -290.47,-17.01 -50.35,6.17 -54.65,38.97 -58.88,79.81 -13.95,10.04 -27.92,20.07 -41.86,30.1 l -31.41,-40.56 0.27,-108.98 c -16.2,-14.84 -37.51,-14.57 -50.63,0 l -0.34,18.71 c -1.1,-18.83 -4.55,-32.85 -10.32,-34.24 -37.51,-4.45 -59.04,65.22 -35.8,106.19 20.07,27.58 41.79,-18.8 46.46,-36.02 v 54.34 L 5727,3759 v 0" /><path
         id="path152"
         style="fill:#393536;fill-opacity:1;fill-rule:evenodd;stroke:none"
         d="m 5723.09,3740.07 c -58.62,-80.17 41.64,-26.78 69.36,-26.59 24.41,0.31 48.03,1.01 70.8,2.25 77.73,4.21 145.6,14.66 201.32,36.72 54.85,21.42 75.43,78.49 95.52,68.04 1.75,-58.01 3.48,-116.02 5.23,-174.03 -5.09,-36.97 -29.9,-59.75 -78.5,-65.41 -96.83,-5.67 -193.65,-11.33 -290.47,-17.01 -50.35,6.17 -54.65,38.97 -58.88,79.81 -13.95,10.04 -27.92,20.07 -41.86,30.1 l -31.41,-40.56 0.27,-108.98 c -20.77,-10.71 -35.34,-8.52 -42.76,5.27 v 10.47 l -8.21,2.97 c -1.1,-18.83 -0.3,-32.85 -10.32,-34.24 -37.51,-4.45 -59.04,65.22 -35.8,106.19 20.07,27.58 41.79,-18.8 46.46,-36.02 l 7.87,6.59 -0.01,47.75 101.39,106.68 v 0" /><path
         id="path154"
         style="fill:#f4f4f4;fill-opacity:1;fill-rule:evenodd;stroke:none"
         d="m 6017.15,3628.2 c 26.15,-6.64 58.77,-40.65 40.49,-38.92 -95.19,-5.93 -132.39,-4.23 -230.18,-14.75 -58.57,3.13 97.98,76.36 189.69,53.67 v 0" /><path
         id="path156"
         style="fill:#7b7979;fill-opacity:1;fill-rule:evenodd;stroke:none"
         d="m 3731.38,2555.54 c 166.35,0 301.22,-154.83 301.22,-345.81 0,-191 -134.87,-345.82 -301.22,-345.82 -166.36,0 -301.23,154.82 -301.23,345.82 0,190.98 134.87,345.81 301.23,345.81" /><path
         id="path158"
         style="fill:#ffffff;fill-opacity:1;fill-rule:evenodd;stroke:none"
         d="m 3992.68,2037.62 c -51.99,-103.8 -149.55,-173.71 -261.3,-173.71 -166.34,0 -301.23,154.87 -301.23,345.82 0,56.69 11.89,110.2 32.96,157.41 -14.53,-321.7 567.63,18.87 529.57,-329.52 v 0" /><path
         id="path160"
         style="fill:#393536;fill-opacity:1;fill-rule:evenodd;stroke:none"
         d="m 3729.68,2523.64 c 150.07,0 271.74,-140.53 271.74,-313.91 0,-173.38 -121.67,-313.93 -271.74,-313.93 -150.08,0 -271.75,140.55 -271.75,313.93 0,173.38 121.67,313.91 271.75,313.91" /><path
         id="path162"
         style="fill:#bdbcbc;fill-opacity:1;fill-rule:evenodd;stroke:none"
         d="m 2348.84,3595.84 c -7.57,13.25 -15.13,26.5 -22.69,39.75 0,24.79 0,49.6 0,74.41 -0.15,24.19 -18.99,40.14 -43.73,45.03 -65.15,9.17 -130.29,18.34 -195.44,27.52 -29.98,0.25 -54.61,-9.02 -60.19,-52.34 -1.75,-49.28 -3.49,-98.57 -5.24,-147.85 0.64,-41.99 26.99,-56.78 65.43,-61.5 43.04,-2.39 86.07,-4.79 129.11,-7.2 35.38,9.45 70.77,18.88 106.15,28.33 8.87,17.95 17.73,35.91 26.6,53.85 v 0" /><path
         id="path164"
         style="fill:#4f4c4c;fill-opacity:1;fill-rule:evenodd;stroke:none"
         d="m 2259.36,3641.48 -108.81,1.39 c -17.93,1.08 15.29,59.26 -7.16,69.08 -74.94,30.72 -83.96,54.9 -56.41,70.6 -29.98,0.25 -54.61,-9.02 -60.19,-52.34 -1.75,-49.28 -3.49,-98.57 -5.24,-147.85 0.64,-41.99 26.99,-56.78 65.43,-61.5 -37.25,27.63 49.51,64.02 93.86,67.87 14.27,0.31 11.21,12.3 0.34,17.03 -39.52,18.33 -39.2,23.26 15.14,23.24 l 57.78,-0.47 c 19.07,-1.1 54.38,-48.92 71.41,-80.02 l 10.03,20.42 c -6.23,15.23 -59.83,67.63 -76.18,72.55 v 0" /><path
         id="path166"
         style="fill:#bdbcbc;fill-opacity:1;fill-rule:evenodd;stroke:none"
         d="m 5695.59,3673.95 -31.39,-40.56 0.27,-108.96 c -14.56,-11.68 -27.39,-13.98 -38.79,-8.54 12.78,2.52 21.18,8.35 21.73,20.08 l -1.46,97.42 48.87,54.88 32.27,-36.95 -31.5,22.63 v 0" /><path
         id="path168"
         style="fill:#f4f4f4;fill-opacity:1;fill-rule:evenodd;stroke:none"
         d="m 2335.54,3568.92 c -16.62,26.99 -54.64,62.45 -76.18,72.56 l -108.81,1.38 c -16.94,6.1 79.12,47.03 118.34,22.08 28.42,-20.34 59.45,-47.01 73.88,-81.39 l -7.23,-14.63 v 0" /><path
         id="path170"
         style="fill:#f4f4f4;fill-opacity:1;fill-rule:evenodd;stroke:none"
         d="m 2257.04,3628.03 c 56.55,-36.17 1.75,-63.69 -44.18,-33.19 -26.44,14.82 -19.67,-9.42 -7.21,-18.75 29.68,-28.07 64.29,-34.21 98.34,-34.21 7.17,2.21 14.34,4.42 21.52,6.64 -20.27,37.33 -42.66,65.68 -68.47,79.51 v 0" /><path
         id="path172"
         style="fill:#f4f4f4;fill-opacity:1;fill-rule:evenodd;stroke:none"
         d="m 2258.3,3746.96 c 73.3,-26.21 54.45,-56.4 1.04,-47.91 -82.66,11.53 -132.48,46.67 -160.93,70.42 53.3,-7.51 106.6,-15 159.89,-22.51 v 0" /><path
         id="path174"
         style="fill:#d3d2d2;fill-opacity:1;fill-rule:evenodd;stroke:none"
         d="m 4472.23,1682.53 c -0.87,-92.46 -1.74,-184.92 -2.62,-277.38 -20.45,-79.61 -143.28,-90.95 -269.41,-100.1 C 2859.13,1250.39 1536.05,1272.2 250.914,1455.25 138.895,1476.5 22.9453,1496.35 11.8203,1553 L 0.046875,1835.62 c 3.269535,42.11 112.098125,71.31 191.875125,46.09 54.726,-17.32 124.793,-38.81 196.726,-56.55 999.572,-69.87 2002.802,-106.84 3009.362,-113.84 327.54,14.47 655.08,28.54 982.62,18.32 54.92,1.06 92.41,-9.85 91.6,-47.11 v 0" /><path
         id="path176"
         style="fill:#231f20;fill-opacity:1;fill-rule:evenodd;stroke:none"
         d="m 4469.61,1405.15 2.06,218.48 c -28.35,-41.49 -249.63,-62.87 -368.03,-63.48 -1311.5,-25.35 -2623.87,2.31 -3928.265,153.79 -58.945,9.78 -124.5898,16.03 -172.25,47.89 L 8.94531,1622.04 C 18.168,1589.11 199.98,1538.86 323.227,1532.07 1553.09,1392.82 2810.92,1315.17 4107.18,1361.97 c 135.61,3.91 297.64,5.53 362.43,43.18 v 0" /><path
         id="path178"
         style="fill:#393536;fill-opacity:1;fill-rule:evenodd;stroke:none"
         d="m 3791.29,1537.71 c 115.42,0 209.01,-34.08 209.01,-76.12 0,-42.02 -93.59,-76.1 -209.01,-76.1 -115.43,0 -209.01,34.08 -209.01,76.1 0,42.04 93.58,76.12 209.01,76.12" /><path
         id="path180"
         style="fill:#393536;fill-opacity:1;fill-rule:evenodd;stroke:none"
         d="m 38.8945,1667.89 c 2.5899,27.49 38.3907,42.02 79.9605,32.47 41.555,-9.56 73.165,-39.58 70.579,-67.08 -2.59,-27.47 -38.391,-42 -79.942,-32.45 -41.574,9.56 -73.1795,39.59 -70.5975,67.06" /><path
         id="path182"
         style="fill:#bdbcbc;fill-opacity:1;fill-rule:evenodd;stroke:none"
         d="m 5737.47,3643.86 c 4.05,-41.88 8.91,-57.32 33.2,-72.72 33.69,24.52 67.4,49.06 101.1,73.59 30.02,25.9 16.16,33.71 -17.63,33.29 28.53,1.97 23.81,32.53 1.96,24.14 -20.92,-4.45 -78.34,-5.23 -78.34,-5.23 -37.41,-7.11 -30.96,-14.84 -4.56,-22.84 67.2,1.96 65.37,-7.02 16.32,-23.49 -16.37,-5.21 -35.07,-6.44 -52.05,-6.74 v 0" /><path
         id="path184"
         style="fill:#bdbcbc;fill-opacity:1;fill-rule:evenodd;stroke:none"
         d="m 6160.09,3820.49 c -3.31,19.02 -10.32,35.71 -23.93,48.26 -60.28,-72.05 -153.82,-120.93 -271.54,-152.95 132.27,5.85 231.51,32.01 271.84,94.37 8.42,8.79 16.54,14.69 23.63,10.32 v 0" /><path
         id="path186"
         style="fill:#ffffff;fill-opacity:1;fill-rule:evenodd;stroke:none"
         d="m 1829.45,2042.06 c -235.71,-462.65 -476.23,140.56 -413.93,395.59 4.62,-514.86 258.99,-680.5 413.93,-395.59 v 0" /><path
         id="path188"
         style="fill:#bdbcbc;fill-opacity:1;fill-rule:evenodd;stroke:none"
         d="m 7218.56,3116.88 c -308.91,-445.4 -216.9,-1065.69 -466.8,-1465.92 l 223.27,37.01 c 91.98,462.56 158.06,1031.87 243.53,1428.91 v 0" /><path
         id="path190"
         style="fill:#a7a5a6;fill-opacity:1;fill-rule:evenodd;stroke:none"
         d="m 7218.56,3116.88 c -113.88,-450.13 -162.35,-959.7 -243.53,-1428.91 175.48,-51.81 244.99,-107.45 122.85,-154.15 25.55,-1.53 50.99,-1.68 76.31,-0.45 -26.31,229.83 -46.11,541.98 -43.58,697.31 4.94,301.54 35.76,588.18 87.95,886.2 v 0" /><path
         id="path192"
         style="fill:#7b7979;fill-opacity:1;fill-rule:evenodd;stroke:none"
         d="m 3219.05,2356.79 c -181.92,-214.08 -270.52,-447.81 -520.55,-635.7 l 61.74,-1.29 c 88.32,85.5 174.8,179.97 265.75,308.75 515.65,819.31 990.05,973.66 1517.88,1014.81 -229.99,0.68 -506.31,-55.94 -708.09,-151.82 383.45,260.26 856.26,412.73 1475.58,459.81 85.5,2.38 65.48,92.55 28.84,135.91 35.01,-58.63 30.55,-116.26 -35.43,-113.69 -1011.61,-73.99 -1570.57,-432 -2085.72,-1016.78 v 0" /><path
         id="path194"
         style="fill:#f4f4f4;fill-opacity:1;fill-rule:evenodd;stroke:none"
         d="m 4706.34,1828.96 c 38.03,74.68 71.22,155.98 99.7,244.41 199.45,677.42 496.37,729.2 709.17,219.33 57.25,-126.04 86.65,-212.66 104.7,-217.65 18.06,-4.99 7.11,76.55 -51.66,217.12 -376.48,851.15 -688.57,342.52 -861.91,-463.21 v 0" /><path
         id="path196"
         style="fill:#656263;fill-opacity:1;fill-rule:evenodd;stroke:none"
         d="m 3702.05,2581.63 c 233.89,-26.02 359.91,-181.18 343.71,-459.6 3.02,-50.27 55.28,-10.79 45.18,-36.33 -8.96,-19.08 -29.03,-12.63 -60.88,-59.91 -79.98,-116.99 -222.07,-179.27 -334.37,-166.49 -202.48,39.75 -296.99,193.16 -289.63,443.73 -48.52,-238.45 71.53,-454.92 294.71,-489.79 194.5,-23.78 377.25,126.74 432.88,292.27 11.05,43.08 16.09,88.3 16.15,135.33 -50.16,-77.7 -69.8,-65.63 -75.55,-12.74 -34.88,255.27 -185.41,365.1 -372.2,353.53 v 0" /><path
         id="path198"
         style="fill:#ffffff;fill-opacity:1;fill-rule:evenodd;stroke:none"
         d="m 3446.04,2415.1 c 165.04,304.98 594.38,308.22 688.04,-50.42 -80.41,154.62 -215.87,206.02 -185.51,172.06 44.95,-40.76 64.05,-85.22 72.65,-131.18 -138.41,242.15 -423,222.33 -575.18,9.54 v 0" /><path
         id="path200"
         style="fill:#deddde;fill-opacity:1;fill-rule:evenodd;stroke:none"
         d="m 3117.7,4648.14 c 786.19,158.92 1799.59,247.56 2386.63,56.56 97.94,-33.09 172.32,-26.23 277.15,-19.69 239.58,14.07 471.31,7.76 732.5,-103.87 -761.07,464.91 -2359.04,436.84 -3396.28,67 v 0" /><path
         id="path202"
         style="fill:#ffffff;fill-opacity:1;fill-rule:evenodd;stroke:none"
         d="m 3726.19,2736.31 c 316.61,175.64 1043.37,337.97 1476.58,72.97 -435.56,351.64 -1139.25,162.37 -1476.58,-72.97 v 0" /><path
         id="path204"
         style="fill:#f4f4f4;fill-opacity:1;fill-rule:evenodd;stroke:none"
         d="m 1348.06,2946.78 28.36,53.04 c -326.71,15.86 -644.498,-101.48 -821.607,-313.73 228.921,162.89 499.207,285.8 793.247,260.69 v 0" /><path
         id="path206"
         style="fill:#ffffff;fill-opacity:1;fill-rule:evenodd;stroke:none"
         d="m 5151.3,4758.63 c 159.63,-46.24 -315.28,50.17 -875.34,17.01 334.29,29.12 627.6,29.68 875.34,-17.01 v 0" /><path
         id="path208"
         style="fill:#ffffff;fill-opacity:1;fill-rule:evenodd;stroke:none"
         d="m 5609.19,3577.75 c -1.75,9.75 -13.33,39.92 -23.94,35.86 -7.23,-4.18 -12.59,-28.4 -9.16,-42.45 7.19,27.67 19.42,31.29 33.1,6.59 v 0" /><path
         id="path210"
         style="fill:#bdbcbc;fill-opacity:1;fill-rule:evenodd;stroke:none"
         d="m 5610.11,3542.12 c -4.83,-18.85 -19.31,-10.07 -28.52,1.82 3.22,-13.18 14.87,-27.53 22.45,-27.97 5.53,1.48 7.54,10.19 6.07,26.15 v 0" /><path
         id="path212"
         style="fill:#e9e9e9;fill-opacity:1;fill-rule:evenodd;stroke:none"
         d="m 699.785,2680.72 c 161.965,0 308.175,-184.38 282.293,-426.87 0,-193.53 -206.609,-350.46 -368.566,-350.46 -161.965,0 -293.192,165.16 -293.192,358.69 0,193.54 132.828,418.64 379.465,418.64 v 0" /><path
         id="path214"
         style="fill:#918f90;fill-opacity:1;fill-rule:evenodd;stroke:none"
         d="m 601.453,2594.52 c 145.149,0 262.809,-144.68 262.809,-323.17 0,-178.49 -117.66,-323.17 -262.809,-323.17 -145.14,0 -262.805,144.68 -262.805,323.17 0,178.49 117.665,323.17 262.805,323.17" /><path
         id="path216"
         style="fill:#ffffff;fill-opacity:1;fill-rule:evenodd;stroke:none"
         d="m 838.348,2131.25 c -42.45,-108.32 -132.586,-183.07 -236.895,-183.07 -145.121,0 -262.805,144.72 -262.805,323.17 0,43.22 6.903,84.46 19.426,122.14 67.793,-433.05 554.625,74.34 480.274,-262.24 v 0" /><path
         id="path218"
         style="fill:#393536;fill-opacity:1;fill-rule:evenodd;stroke:none"
         d="m 601.023,2564.72 c 131.133,0 237.438,-131.35 237.438,-293.37 0,-162.03 -106.305,-293.37 -237.438,-293.37 -131.125,0 -237.433,131.34 -237.433,293.37 0,162.02 106.308,293.37 237.433,293.37" /><path
         id="path220"
         style="fill:#656263;fill-opacity:1;fill-rule:evenodd;stroke:none"
         d="m 582.773,2618.91 c 275.575,-0.07 358.043,-326.59 267.008,-512.58 -57.754,-118 -143.898,-170.87 -269.656,-164.12 -82.703,4.43 -172.156,76.4 -216.648,134.47 134.507,-295.1 515.257,-180.98 606.824,97.28 9.91,40.25 14.433,82.52 14.5,126.47 -45.047,-72.62 -62.672,-61.33 -67.84,-11.91 -31.32,238.56 -164.512,348.04 -334.188,330.39 v 0" /><path
         id="path222"
         style="fill:#ffffff;fill-opacity:1;fill-rule:evenodd;stroke:none"
         d="m 513.348,2629.55 c 180.211,106.18 396.632,50.89 460.211,-214.76 -103.621,242.7 -196.7,193.9 -169.438,162.16 40.348,-38.09 57.5,-79.65 65.223,-122.59 -62.364,113.56 -155.227,179.91 -286.571,164.55 -74.828,-7.45 -95.246,-3.81 -69.425,10.64 v 0" /><path
         id="path224"
         style="fill:#ffffff;fill-opacity:1;fill-rule:evenodd;stroke:none"
         d="m 5797.07,1215.34 -1.54,38.08 1326.7,357.28 c 15.59,4.21 34.63,-15.06 23.49,-19.29 L 5797.07,1215.34 v 0" /><path
         id="path226"
         style="fill:#231f20;fill-opacity:1;fill-rule:evenodd;stroke:none"
         d="m 7825.55,2027.92 c -1.94,77 -6.62,154.23 -13.16,231.6 15.75,-4.85 26.84,-14.64 27.71,-35.3 2.17,-56.7 4.36,-113.4 6.54,-170.1 -2.39,-12.69 -9.97,-20.96 -21.09,-26.2 v 0" /><path
         id="path228"
         style="fill:#231f20;fill-opacity:1;fill-rule:evenodd;stroke:none"
         d="m 2049.61,2613.54 c -2.56,-13.05 13.99,-12.25 22.03,3 184.09,474.38 463.7,882.36 1053.49,1048.97 -603.74,-153.17 -913.45,-604.77 -1075.52,-1051.97 v 0" /><path
         id="path230"
         style="fill:#ffffff;fill-opacity:1;fill-rule:evenodd;stroke:none"
         d="m 2043.8,2618.05 c -2.57,-13.04 13.99,-12.24 22.02,3 184.1,474.39 463.7,882.37 1053.5,1048.98 C 2544.49,3529.74 2234.49,3131.91 2043.8,2618.05 v 0" /><path
         id="path232"
         style="fill:#a7a5a6;fill-opacity:1;fill-rule:evenodd;stroke:none"
         d="m 388.648,1825.16 c -99.648,6.98 -201.476,21.57 -300.0503,12.16 -31.1211,-5.13 -90.43364,-9.16 -88.5547312,-1.7 C 13.3359,1886.91 120.113,1901.16 191.918,1881.71 c 64.918,-20.93 130.656,-39.28 196.73,-56.55 v 0" /><path
         id="path234"
         style="fill:#bfd8dc;fill-opacity:1;fill-rule:evenodd;stroke:none"
         d="m 3868.95,4446.91 -14.92,-94.14 c -4.19,-23.66 17.41,-34.57 47.17,-31.42 134.99,-2.29 271.23,6.65 408.85,27.92 36.68,1.18 60.26,13.97 70.76,38.4 l 3.12,94.13 c 0.77,17.86 -16.41,32.24 -35.38,31.4 -75.64,-0.91 -150.61,-3.45 -224.31,-9.06 l -0.27,18.12 c -0.96,18.05 -34.15,32.85 -34.61,13.04 l -1.2,-34.15 c -58.32,-5.28 -115.77,-12.65 -172.04,-22.84 -22.28,-4.66 -38,-15.13 -47.17,-31.4 v 0" /><path
         id="path236"
         style="fill:#e9e9e9;fill-opacity:1;fill-rule:evenodd;stroke:none"
         d="M 4469.61,1405.15 C 4449.16,1325.54 4326.33,1314.2 4200.2,1305.05 2859.13,1250.39 1536.05,1272.2 250.914,1455.25 138.895,1476.5 22.9453,1496.35 11.8203,1553 l -2.21483,53.3 C 28.5,1556.98 198.07,1529.38 258.406,1522.25 1509.18,1345.7 3502.73,1310.41 4199.32,1364.63 c 158.32,8.55 217.3,10.75 270.29,40.52 v 0" /><path
         id="path238"
         style="fill:#ffffff;fill-opacity:1;fill-rule:evenodd;stroke:none"
         d="m 2.1875,1784.35 -2.109375,50.51 C 38.3438,1809.24 108.223,1799.19 175.898,1790.17 1466.97,1617.84 2806.64,1608.22 4106.89,1645.47 c 131.33,9.14 247.95,7.82 365.34,37.06 l -0.39,-41.57 c -94.55,-34.05 -218.73,-43.32 -364.64,-47.32 -1284.49,-38.35 -2657.98,-23.37 -3931.825,141.65 -71.266,10.24 -147.5937,25.2 -173.1875,49.06 v 0" /><path
         id="path240"
         style="fill:#c8c7c7;fill-opacity:1;fill-rule:evenodd;stroke:none"
         d="M 1782.45,3396.98 C 1204.51,3072.56 1104.16,2375.9 1332.36,1768.92 c 160.18,-7.09 320.36,-14.18 480.53,-21.28 -125.76,15.85 -206.14,21.64 -266.81,43.65 -283.04,127.2 -267.06,709.42 -200.96,1010.7 70.64,314.65 204.38,408.19 437.33,594.99 v 0" /><path
         id="path242"
         style="fill:#a7a5a6;fill-opacity:1;fill-rule:evenodd;stroke:none"
         d="m 1332.36,1768.93 c 371.8,-134.21 960.71,-52.7 1419.06,-71.14 225.87,-7.54 438.69,-34.02 681.26,-17 -12.07,15.25 -54.97,16.24 -66.08,30.76 -198.71,2.73 -407.65,5.53 -606.36,8.25 -475.95,10.38 -951.91,24.59 -1427.88,49.13 v 0" /><path
         id="path244"
         style="fill:#231f20;fill-opacity:1;fill-rule:evenodd;stroke:none"
         d="m 4346.28,3137.48 c -23.7,-11.37 8.82,-28.87 26.51,-20.63 340.52,111.47 705.69,187.75 1119.55,194.45 407.55,6.22 815.1,12.44 1222.65,18.65 173.76,-7.59 361.01,32.09 489.25,-134.86 1.16,3.52 1.54,7.97 -3.55,19.09 -76.86,161.66 -294.09,144.12 -497.48,144.26 -392.32,-3.88 -784.65,-7.76 -1176.97,-11.65 -457.31,-19.69 -843.11,-95.35 -1179.96,-209.31 v 0" /><path
         id="path246"
         style="fill:#ffffff;fill-opacity:1;fill-rule:evenodd;stroke:none"
         d="m 5592.84,2303.98 c -11.55,26.46 -18.91,44.11 -30.46,70.57 18.52,319.96 18.69,643.13 -62.43,936.87 -7.8,22.6 -15.75,44.47 -27.61,65.35 25.93,273.81 41.43,546.98 67.36,820.8 8.93,237.19 89.37,399.07 297.34,426.74 221.69,26 446.76,17.44 676.93,-43.17 320.37,-130.46 464.06,-451.45 552.22,-766.83 -149.23,373.42 -330.19,674.49 -610.46,749.11 -206.52,43.82 -404.99,43.32 -601.02,29.46 -204.83,-42.01 -263.4,-199.48 -269.08,-398.71 -20.94,-278.25 -49.75,-536.87 -70.7,-815.12 109.91,-281.6 88.38,-708.13 77.91,-1075.07 v 0" /><path
         id="path248"
         style="fill:#ffffff;fill-opacity:1;fill-rule:evenodd;stroke:none"
         d="m 4343.75,3140.25 c -23.69,-11.38 8.83,-28.86 26.51,-20.63 340.53,111.47 705.7,187.74 1119.55,194.45 407.57,6.22 815.11,12.45 1222.66,18.66 173.76,-7.61 361.01,32.09 489.25,-134.88 1.15,3.52 1.54,7.98 -3.56,19.1 -76.86,161.66 -294.08,144.12 -497.48,144.26 -392.31,-3.87 -784.64,-7.76 -1176.96,-11.65 -457.33,-19.68 -843.11,-95.35 -1179.97,-209.31 v 0" /><path
         id="path250"
         style="fill:#231f20;fill-opacity:1;fill-rule:evenodd;stroke:none"
         d="m 6397.4,4574.68 c -180.79,31.28 -361.69,35.09 -542.69,18.21 -144.41,-28.4 -222.91,-116.89 -251.72,-250.68 44.74,127.13 119.4,219.06 253.2,241.42 182.67,16.14 365.33,11.13 548,-17.13 134.22,-167.65 214.52,-615.53 283.28,-1208.22 59.42,-94.77 71.01,-202.6 72.7,-313.11 7.1,-463.54 -10.42,-926.96 -69.79,-1390.47 -303.13,-57.81 -608.62,-109.25 -912.62,-157.4 l 1.64,-16.95 c 305.61,49.38 613.81,103.03 924.55,162.13 57.2,456.77 73.34,926.45 72.93,1404.16 -2.75,144.15 -32.31,236.05 -77.62,311.76 -69.15,600.75 -165.21,1063.01 -287.84,1213.75 -7.03,1.27 -7,1.27 -14.02,2.53 v 0" /><path
         id="path252"
         style="fill:#393536;fill-opacity:1;fill-rule:evenodd;stroke:none"
         d="m 6756.26,3129.69 c -3.51,-20.44 -45.22,-47.98 -70.45,-35.28 -25.51,8.77 -64.25,-6.25 -97.01,13.7 -16.75,10.19 -66.53,-0.86 -57.21,14.03 9.39,14.97 29.32,20.67 51.08,14.75 35.09,-9.55 78.25,-10.8 104.84,16.66 l 68.75,-23.86 v 0" /><path
         id="path254"
         style="fill:#656263;fill-opacity:1;fill-rule:evenodd;stroke:none"
         d="m 6531.67,3156.48 c 2.66,21.23 80.33,45.67 170.85,54.34 49.43,4.75 76.72,-5.96 75.88,-47.8 -5.81,-22.96 -20.06,-41.27 -60.7,-45.05 -32.3,-1.41 -31.96,25.49 -41.37,26.81 -64.31,6.35 -144.12,-15.68 -144.66,11.7 v 0" /><path
         id="path256"
         style="fill:#ffffff;fill-opacity:1;fill-rule:evenodd;stroke:none"
         d="m 6551.57,3163.66 c -0.18,25.25 114.43,38.86 153.03,42.11 46.97,4.89 75.21,-9.95 73.8,-42.76 -0.72,-8.81 -13.44,12.61 -92.9,8.47 -77.37,-4.04 -132.33,-18.54 -133.93,-7.82 v 0" /><path
         id="path258"
         style="fill:#231f20;fill-opacity:1;fill-rule:evenodd;stroke:none"
         d="m 6525.14,4407.97 c 275.04,-127.97 457.67,-409.33 545.61,-847.85 8.92,-69.26 -5.78,-97.68 -36.64,-98.14 26.27,7.17 34.92,39.81 25.94,97.88 -86.17,429.03 -270.66,701.93 -534.91,848.11 v 0" /><path
         id="path260"
         style="fill:#bfd8dc;fill-opacity:1;fill-rule:evenodd;stroke:none"
         d="m 4422.01,3856.87 c -2.03,52.18 -8.77,170.45 -51.19,232.68 -30.98,51.65 -20.89,70.94 0.98,57.47 62,-43.84 91.7,-161.73 102.37,-278.98 l -52.16,-11.17 v 0" /><path
         id="path262"
         style="fill:#edf9fe;fill-opacity:1;fill-rule:evenodd;stroke:none"
         d="m 5899.89,4235.42 c 119.04,-36.26 136.22,-258.85 142.93,-352.67 l -46.61,-8.87 c -8.76,137.57 -37.81,263.25 -96.32,361.54 v 0" /><path
         id="path264"
         style="fill:#231f20;fill-opacity:1;fill-rule:evenodd;stroke:none"
         d="m 5901.55,3492.3 c 214.84,-9.67 429.68,-19.34 644.52,-29.01 26.78,1.22 31.49,54.17 19.99,119.22 -40.17,239.27 -80.34,478.54 -120.51,717.82 -14.22,99.2 -34.16,139.44 -81.35,158.67 -167.97,54.63 -445.44,35.9 -550.34,-5.56 193.18,45.5 397.77,43.51 544.66,0.56 47.57,-26.17 61.48,-81.17 77.36,-158.34 32.15,-238.75 84.92,-490.28 117.08,-729.03 6.18,-57.52 3.22,-90.58 -17.69,-90.34 -204.82,6.19 -430.28,25.16 -635.13,31.36 0.49,-5.13 0.95,-10.25 1.41,-15.35 v 0" /><path
         id="path266"
         style="fill:#231f20;fill-opacity:1;fill-rule:evenodd;stroke:none"
         d="m 5562.34,2373.9 c 25,442.58 -14.59,873.58 -90,1002.87 25.93,273.82 41.43,546.97 67.37,820.8 2.5,-137.73 -39.62,-736.2 -45.41,-821.46 87.2,-199.81 117.56,-756.99 81.22,-1032.43 -4.63,11.68 -7.36,17.95 -13.18,30.22 v 0" /><path
         id="path268"
         style="fill:#231f20;fill-opacity:1;fill-rule:evenodd;stroke:none"
         d="m 7063.52,3820.95 c -129.61,349.69 -323.41,626.76 -652.1,751.2 343.06,-61.64 547.02,-454.16 652.1,-751.2 v 0" /><path
         id="path270"
         style="fill:#ffffff;fill-opacity:1;fill-rule:evenodd;stroke:none"
         d="m 5056.95,1674.74 c -66.54,-26.23 -85.01,-120.29 -27.16,-242.11 46.05,-55.66 134.96,90.47 254.54,-11.52 -38.1,151.83 -118.33,228.45 -227.38,253.63 v 0" /><path
         id="path272"
         style="fill:#393536;fill-opacity:1;fill-rule:evenodd;stroke:none"
         d="m 5024.53,1350.19 c -43.51,-35.26 -59.35,-123.89 -43.8,-193.33 -82.59,-25.31 -219.8,-41.79 -298.31,56.73 3.71,149.94 43.48,282.19 124.45,369.29 51.89,-242.41 97.41,-116.06 217.66,-232.69 v 0" /><path
         id="path274"
         style="fill:#393536;fill-opacity:1;fill-rule:evenodd;stroke:none"
         d="m 5284.32,1421.11 c 17.28,-87.33 19.22,-175.84 2.65,-265.79 -4.89,13.79 -36.75,28.74 -86.03,18.68 13.67,48.01 15.15,97.67 -5.15,145.11 33.17,14.4 46.59,107.25 88.53,102 v 0" /><path
         id="path276"
         style="fill:#231f20;fill-opacity:1;fill-rule:evenodd;stroke:none"
         d="m 5126.35,1701.55 c 1.67,51.26 -86.15,87.72 -115.96,73.83 -9.43,-4.45 12.97,-43.51 46.11,-58.81 21.38,-13.84 69.36,-27.29 69.85,-15.02 v 0" /><path
         id="path278"
         style="fill:#231f20;fill-opacity:1;fill-rule:evenodd;stroke:none"
         d="m 4839.8,1695.03 c -20.01,-10.56 -37.22,-25.07 -52.87,-41.78 -28.99,-28.94 -64.44,7.27 -60.05,52.23 1.6,14.5 37.61,46.88 63.02,49.65 63.54,1.08 81.36,-39.29 49.9,-60.1 v 0" /><path
         id="path280"
         style="fill:#231f20;fill-opacity:1;fill-rule:evenodd;stroke:none"
         d="m 4546.54,1462.3 c -11.65,-33.17 -18.25,-68.39 -21.73,-108.71 3.12,-55.73 94.15,-57.88 97.05,-13.58 1.39,27.72 6.8,56.54 12.62,78.86 22.45,55.11 -43.46,69.15 -87.94,43.43 v 0" /><path
         id="path282"
         style="fill:#231f20;fill-opacity:1;fill-rule:evenodd;stroke:none"
         d="m 4536.96,1017.77 c -2.46,26.48 76.35,74.98 83.73,32.68 6.17,-26.56 20.64,-70.087 31.78,-93.661 36.21,-62.48 -70.5,-65.976 -83.77,-43.555 -21.51,31.688 -29.66,70.848 -31.74,104.536 v 0" /><path
         id="path284"
         style="fill:#231f20;fill-opacity:1;fill-rule:evenodd;stroke:none"
         d="m 4764.08,710.059 c -21.54,12.785 -18.39,44.972 -12.39,60.714 8.38,26.348 24.19,25.977 43.27,17.637 24.92,-10.879 47.72,-21.074 73.04,-31.074 25.36,-10.012 37.54,-23.371 18.14,-49.875 -10.83,-11.727 -41.75,-26.336 -69.19,-16.981 -20.08,1.942 -38.5,10.254 -52.87,19.579 v 0" /><path
         id="path286"
         style="fill:#231f20;fill-opacity:1;fill-rule:evenodd;stroke:none"
         d="m 5063.04,784.473 c 26.98,12.168 49.63,28.672 67.88,49.609 10.24,12.773 24.25,-9.668 11.09,-25.457 -18.71,-23.73 -40.22,-41.836 -63.31,-56.789 -20.66,-10.801 -26.86,26.973 -15.66,32.637 v 0" /><path
         id="path288"
         style="fill:#a7a5a6;fill-opacity:1;fill-rule:evenodd;stroke:none"
         d="m 3425.94,1712.55 c 19.02,-33.04 95.35,-57.65 376.37,-52.26 169.41,8.48 287.62,19.53 285.22,72.64 -220.56,-2.37 -441.08,-9.73 -661.59,-20.38 v 0" /><path
         id="path290"
         style="fill:#ffffff;fill-opacity:1;fill-rule:evenodd;stroke:none"
         d="m 3802.31,1660.29 c 90.46,2.71 305.48,45.5 150.74,70.6 -146.43,-2.87 -292.85,-7.8 -439.25,-14.27 -57.55,-28.33 118.74,-61.41 288.51,-56.33 v 0" /><path
         id="path292"
         style="fill:#a7a5a6;fill-opacity:1;fill-rule:evenodd;stroke:none"
         d="m 4115.02,1733.08 c 28.64,-13.63 21.21,-29.06 -2.61,-45.31 113.44,9.98 226.88,19.96 340.3,29.93 -14.58,9.14 -39.78,11.9 -72.07,11.94 -73.12,3.03 -177.84,2.59 -265.62,3.44 v 0" /><path
         id="path294"
         style="fill:#a7a5a6;fill-opacity:1;fill-rule:evenodd;stroke:none"
         d="m 418.867,1823.05 c 216.66,-13.45 433.321,-26.92 649.983,-40.36 74.85,-35.31 40.27,-54.86 -296.838,-30.81 -246.879,14.96 -312.926,42.19 -353.145,71.17 v 0" /><path
         id="path296"
         style="fill:#ffffff;fill-opacity:1;fill-rule:evenodd;stroke:none"
         d="m 666.098,1806.6 c 69.863,-4.28 139.726,-8.59 209.59,-12.88 143.452,-48.65 61.871,-50.62 -121.993,-31.38 -249.812,26.78 -190.765,36.72 -87.597,44.26 v 0" /><path
         id="path298"
         style="fill:#231f20;fill-opacity:1;fill-rule:evenodd;stroke:none"
         d="m 5317.34,2986.52 c 17.09,2.68 34.28,-16.35 38.39,-42.54 4.11,-26.18 -6.43,-49.57 -23.52,-52.25 -17.08,-2.68 -34.27,16.36 -38.38,42.53 -4.12,26.19 6.42,49.58 23.51,52.26" /><path
         id="path300"
         style="fill:none;stroke:#231f20;stroke-width:5.66929007;stroke-linecap:butt;stroke-linejoin:miter;stroke-miterlimit:2.41420007;stroke-dasharray:none;stroke-opacity:1"
         d="m 5317.34,2986.52 c 17.09,2.68 34.28,-16.35 38.39,-42.54 4.11,-26.18 -6.43,-49.57 -23.52,-52.25 -17.08,-2.68 -34.27,16.36 -38.38,42.53 -4.12,26.19 6.42,49.58 23.51,52.26 z" /><path
         id="path302"
         style="fill:#ffffff;fill-opacity:1;fill-rule:evenodd;stroke:none"
         d="m 5331.32,2985.21 c 14.97,2.34 30.02,-14.33 33.62,-37.26 3.6,-22.92 -5.62,-43.41 -20.6,-45.76 -14.96,-2.35 -30.01,14.33 -33.62,37.24 -3.59,22.93 5.63,43.42 20.6,45.78" /><path
         id="path304"
         style="fill:#4f4c4c;fill-opacity:1;fill-rule:evenodd;stroke:none"
         d="m 1983.61,2268.71 c 9.48,-15.1 3.58,-43.98 -14.52,-57.97 -15.96,-12.33 -40.06,0.28 -48.98,-26.35 -28.91,-98.1 -29.29,-241.17 -1.92,-268.95 17.2,-17.47 32.02,-169.41 -45.79,-167.48 -88.63,2.2 -79.4,162.09 -45.79,316.28 36.27,166.38 84.1,305.17 157,204.47 v 0" /><path
         id="path306"
         style="fill:#bdbcbc;fill-opacity:1;fill-rule:evenodd;stroke:none"
         d="m 1928.69,2234.95 c -98.94,-172.68 -8.75,-461.79 -80.19,-463.47 -105.41,-2.44 -13.3,390.02 32.33,477.04 26.02,54.87 55.58,53.43 65.85,45.48 10.93,-8.26 5.02,-18.01 -17.99,-59.05 v 0" /><path
         id="path308"
         style="fill:#ffffff;fill-opacity:1;fill-rule:evenodd;stroke:none"
         d="m 1816.04,1857.61 c -37.27,36.91 56.85,441.16 121.12,433.93 27.43,-3.08 -28.61,-49.63 -62.65,-152.6 -37.39,-113.1 -54.76,-283.35 -58.47,-281.33 v 0" /><path
         id="path310"
         style="fill:#656263;fill-opacity:1;fill-rule:evenodd;stroke:none"
         d="m 1812.9,1747.65 c 37.49,-1.43 74.99,-2.85 112.48,-4.29 -33.73,-34.7 -126.72,-35.22 -112.48,4.29 v 0" /><path
         id="path312"
         style="fill:#4f4c4c;fill-opacity:1;fill-rule:evenodd;stroke:none"
         d="m 46.332,1665.95 c 2.2422,23.81 33.2461,36.39 69.258,28.11 35.992,-8.27 63.371,-34.27 61.129,-58.09 -2.239,-23.8 -33.246,-36.38 -69.239,-28.11 -36.0112,8.28 -63.3902,34.29 -61.148,58.09" /><path
         id="path314"
         style="fill:#656263;fill-opacity:1;fill-rule:evenodd;stroke:none"
         d="m 57.2422,1663.44 c -1.9531,19.03 21.7891,28.37 53.0308,20.87 31.227,-7.49 58.133,-28.99 60.086,-48.02 1.954,-19.01 -21.789,-28.35 -53.015,-20.86 -31.2424,7.5 -58.1565,29 -60.1018,48.01" /><path
         id="path316"
         style="fill:#f9f3bd;fill-opacity:1;fill-rule:evenodd;stroke:none"
         d="m 67.3359,1659.12 c -1.7617,16.26 19.6211,24.25 47.7581,17.83 28.117,-6.4 52.351,-24.77 54.109,-41.04 1.758,-16.25 -19.629,-24.24 -47.742,-17.83 -28.1368,6.41 -52.3712,24.78 -54.1251,41.04" /><path
         id="path318"
         style="fill:#fffccc;fill-opacity:1;fill-rule:evenodd;stroke:none"
         d="m 80.8984,1657.62 c -1.4961,14.54 16.6602,21.68 40.5426,15.95 23.868,-5.73 44.438,-22.16 45.93,-36.7 1.492,-14.55 -16.66,-21.68 -40.531,-15.95 -23.875,5.72 -44.4494,22.16 -45.9416,36.7" /><path
         id="path320"
         style="fill:#faf7de;fill-opacity:1;fill-rule:evenodd;stroke:none"
         d="m 86.2188,1654.13 c -1.3985,13.62 15.6052,20.32 37.9802,14.94 22.36,-5.36 41.629,-20.76 43.028,-34.38 1.402,-13.62 -15.606,-20.3 -37.965,-14.94 -22.371,5.37 -41.6448,20.77 -43.0432,34.38" /><path
         id="path322"
         style="fill:#656263;fill-opacity:1;fill-rule:evenodd;stroke:none"
         d="m 5517.29,3311.09 38.77,-186.59 46.15,-0.01 v 188.57 c -9.21,16.45 -36.04,16.21 -46.15,-0.01 l -38.77,-1.96 v 0" /><path
         id="path324"
         style="fill:#231f20;fill-opacity:1;fill-rule:evenodd;stroke:none"
         d="m 5517.29,3311.09 38.77,-186.59 17.68,-0.01 -17.68,188.56 -4.42,-88.16 -34.35,86.2 v 0" /><path
         id="path326"
         style="fill:#ffffff;fill-opacity:1;fill-rule:evenodd;stroke:none"
         d="m 5578.63,3322.16 6.9,-9.43 -0.03,-188.24 h 13.79 l 0.97,188.46 c -10.14,13.5 -19.28,10.57 -21.63,9.21 v 0" /><path
         id="path328"
         style="fill:#4f4c4c;fill-opacity:1;fill-rule:evenodd;stroke:none"
         d="m 3789.94,1528.87 c 95.19,0 172.36,-28.41 172.36,-63.46 0,-35.04 -77.17,-63.46 -172.36,-63.46 -95.19,0 -172.36,28.42 -172.36,63.46 0,35.05 77.17,63.46 172.36,63.46" /><path
         id="path330"
         style="fill:#f9f3bd;fill-opacity:1;fill-rule:evenodd;stroke:none"
         d="m 3761.46,1510.87 c 76.49,6.15 154.44,-9 174.11,-33.86 19.66,-24.84 -26.41,-49.97 -102.89,-56.12 -76.47,-6.14 -154.43,9.02 -174.09,33.86 -19.67,24.85 26.39,49.98 102.87,56.12" /><path
         id="path332"
         style="fill:#fffccc;fill-opacity:1;fill-rule:evenodd;stroke:none"
         d="m 3770.45,1504.3 c 61.25,4.92 123.98,-7.64 140.14,-28.05 16.15,-20.4 -20.39,-40.95 -81.63,-45.87 -61.24,-4.92 -123.99,7.65 -140.14,28.05 -16.15,20.41 20.4,40.95 81.63,45.87" /><path
         id="path334"
         style="fill:#faf7de;fill-opacity:1;fill-rule:evenodd;stroke:none"
         d="m 3781.1,1498.34 c 45.92,3.69 93.63,-6.57 106.58,-22.93 12.94,-16.35 -13.79,-32.6 -59.71,-36.29 -45.91,-3.69 -93.63,6.58 -106.57,22.92 -12.94,16.36 13.79,32.61 59.7,36.3" /><path
         id="path336"
         style="fill:#a7a5a6;fill-opacity:1;fill-rule:evenodd;stroke:none"
         d="m 1416.86,2478.2 c 22.1,234.94 161.13,748.38 407.26,892.57 -276.94,-150.52 -407.57,-647.93 -407.26,-892.57 v 0" /><path
         id="path338"
         style="fill:#faf8ed;fill-opacity:1;fill-rule:evenodd;stroke:none"
         d="m 113.012,1648.57 c 2.168,7.58 14.156,10.94 26.777,7.52 12.629,-3.43 21.098,-12.36 18.926,-19.95 -2.168,-7.57 -14.149,-10.94 -26.777,-7.51 -12.622,3.43 -21.094,12.36 -18.926,19.94" /><path
         id="path340"
         style="fill:#faf8ed;fill-opacity:1;fill-rule:evenodd;stroke:none"
         d="m 3811.1,1489.68 c 20.89,1.67 44.82,-5.8 53.45,-16.71 8.63,-10.9 -1.3,-21.1 -22.19,-22.78 -20.89,-1.68 -44.82,5.8 -53.45,16.7 -8.63,10.9 1.31,21.11 22.19,22.79" /><path
         id="path342"
         style="fill:#7b7979;fill-opacity:1;fill-rule:evenodd;stroke:none"
         d="m 5798.3,1186.61 c 0.31,-9.2 0.61,-18.41 0.87,-27.61 l 1298.71,374.82 c 34,12.57 56.37,27.7 60.76,44.91 L 5798.3,1186.61 v 0" /><path
         id="path344"
         style="fill:#f4f4f4;fill-opacity:1;fill-rule:evenodd;stroke:none"
         d="m 3731.38,2515.41 c 147.05,0 266.26,-136.86 266.26,-305.68 0,-168.83 -119.21,-305.69 -266.26,-305.69 -147.06,0 -266.28,136.86 -266.28,305.69 0,168.82 119.22,305.68 266.28,305.68" /><path
         id="path346"
         style="fill:#d3d2d2;fill-opacity:1;fill-rule:evenodd;stroke:none"
         d="m 3760.96,2222.2 c 25.03,1.85 -2.85,-77 -60.43,-145.21 -44.78,-53.04 -118.42,-100.44 -129.1,-93.42 -26.06,17.09 76.68,120.58 63.1,145.37 -19.85,36.23 -149.96,-6.42 -152.47,3.89 -16.88,69.4 210.01,84.29 278.9,89.37 v 0" /><path
         id="path348"
         style="fill:#bdbcbc;fill-opacity:1;fill-rule:evenodd;stroke:none"
         d="m 3733.11,2509.94 c 142.73,0 258.46,-132.87 258.46,-296.74 -25.41,31.21 -79.09,56.17 -147.53,62.68 -114.07,10.88 -276.86,-20.75 -369.41,-62.68 0,163.87 115.75,296.74 258.48,296.74 v 0" /><path
         id="path350"
         style="fill:#a7a5a6;fill-opacity:1;fill-rule:evenodd;stroke:none"
         d="m 3593.04,2450.04 c -17.84,-16.41 68.63,-11.43 130.61,-54.99 71.99,-50.6 52.52,-75.66 81.51,-86.42 22.32,-8.31 61.68,173.34 -48.12,187.57 -73.66,9.53 -115.25,-1.3 -164,-46.16 v 0" /><path
         id="path352"
         style="fill:#f4f4f4;fill-opacity:1;fill-rule:evenodd;stroke:none"
         d="m 602.887,2555.82 c 128.152,0 232.035,-127.36 232.035,-284.47 0,-157.11 -103.883,-284.47 -232.035,-284.47 -128.153,0 -232.039,127.36 -232.039,284.47 0,157.11 103.886,284.47 232.039,284.47" /><path
         id="path354"
         style="fill:#bdbcbc;fill-opacity:1;fill-rule:evenodd;stroke:none"
         d="m 605.313,2550.21 c 124.414,0 225.312,-123.69 225.312,-276.23 -4.508,31.34 -23.781,69.4 -87.992,81.37 -120.117,22.4 -310.184,-45.08 -362.629,-81.37 0,152.54 100.894,276.23 225.309,276.23 v 0" /><path
         id="path356"
         style="fill:#ffffff;fill-opacity:1;fill-rule:evenodd;stroke:none"
         d="m 3858.71,2444.06 c -131.91,131.92 -378.25,-14.26 -383.15,-211.99 -2.95,-119.28 21.61,-114.99 36.16,-3.99 20.72,157.99 159.16,189.53 287.97,189.53 34.49,0 100.52,-21.15 59.02,26.45 v 0" /><path
         id="path358"
         style="fill:#d3d2d2;fill-opacity:1;fill-rule:evenodd;stroke:none"
         d="m 3804.18,2125.96 c -11.04,-39.77 -24.38,-62.46 -62.85,-88.38 -162.53,-109.49 78.48,-128.11 123.75,-60.12 36.15,54.32 44.55,132.09 13.73,195.64 -37.62,77.58 -57.5,14.57 -74.63,-47.14 v 0" /><path
         id="path360"
         style="fill:#ffffff;fill-opacity:1;fill-rule:evenodd;stroke:none"
         d="m 3982.71,2258.2 c -3.3,23.6 -23.85,-103.74 -85.04,-175 -73.85,-86.02 -124.74,-115.53 -267.51,-102.93 -67.89,6 -26.22,-23.73 8.83,-41.25 186.85,-93.34 373.46,106.25 343.72,319.18 v 0" /><path
         id="path362"
         style="fill:#bdbcbc;fill-opacity:1;fill-rule:evenodd;stroke:none"
         d="m 3824.81,2299.86 c 30.37,0 54.99,-32.56 54.99,-72.7 0,-40.15 -24.62,-72.69 -54.99,-72.69 -30.38,0 -55.01,32.54 -55.01,72.69 0,40.14 24.63,72.7 55.01,72.7" /><path
         id="path364"
         style="fill:#ffffff;fill-opacity:1;fill-rule:evenodd;stroke:none"
         d="m 3811.2,2285.87 c 21.71,0 39.32,-23.27 39.32,-51.96 0,-28.7 -9.71,34.17 -49.12,8.73 -18.24,-11.77 -29.52,-37.43 -29.52,-8.73 0,28.69 17.6,51.96 39.32,51.96 v 0" /><path
         id="path366"
         style="fill:#d6f2fc;fill-opacity:1;fill-rule:evenodd;stroke:none"
         d="m 3889.16,4451.91 -13.53,-85.46 c -3.8,-21.47 15.8,-31.37 42.82,-28.52 122.54,-2.08 246.21,6.03 371.14,25.34 33.29,1.08 54.71,12.69 64.24,34.86 l 2.82,85.46 c 0.7,16.21 -14.89,29.26 -32.11,28.51 -68.67,-0.84 -136.73,-3.15 -203.62,-8.23 l -0.25,16.44 c -0.88,16.39 -31,29.82 -31.42,11.85 l -1.08,-31.01 c -52.95,-4.79 -105.1,-11.48 -156.18,-20.74 -20.23,-4.22 -34.49,-13.73 -42.83,-28.5 v 0" /><path
         id="path368"
         style="fill:#d3d2d2;fill-opacity:1;fill-rule:evenodd;stroke:none"
         d="m 627.75,2287.13 c 21.75,1.75 -2.48,-72.54 -52.551,-136.78 -38.941,-49.97 -102.969,-94.62 -112.254,-88.01 -27.89,19.83 8.555,67.91 -3.437,96.05 -11.992,28.15 -72.434,36.38 -74.27,44.56 -14.672,65.38 182.61,79.39 242.512,84.18 v 0" /><path
         id="path370"
         style="fill:#a7a5a6;fill-opacity:1;fill-rule:evenodd;stroke:none"
         d="m 481.727,2501.76 c -15.508,-15.46 59.683,-10.77 113.57,-51.81 62.598,-47.66 45.668,-71.26 70.875,-81.4 19.402,-7.83 53.629,163.29 -41.84,176.68 -64.043,8.99 -100.207,-1.21 -142.605,-43.47 v 0" /><path
         id="path372"
         style="fill:#ffffff;fill-opacity:1;fill-rule:evenodd;stroke:none"
         d="m 712.734,2496.13 c -114.699,124.26 -328.89,-13.43 -333.148,-199.7 -2.57,-112.37 18.789,-108.31 31.445,-3.76 18.008,148.83 138.383,178.53 250.391,178.53 29.984,0 87.402,-19.92 51.312,24.93 v 0" /><path
         id="path374"
         style="fill:#d3d2d2;fill-opacity:1;fill-rule:evenodd;stroke:none"
         d="m 665.316,2196.48 c -9.597,-37.46 -21.195,-58.84 -54.648,-83.26 -141.313,-103.14 68.25,-120.67 107.602,-56.63 31.441,51.18 38.742,124.44 11.945,184.29 -32.715,73.08 -49.996,13.72 -64.899,-44.4 v 0" /><path
         id="path376"
         style="fill:#ffffff;fill-opacity:1;fill-rule:evenodd;stroke:none"
         d="m 820.555,2321.05 c -2.864,22.22 -20.742,-97.73 -73.946,-164.86 -64.211,-81.02 -108.457,-108.83 -232.601,-96.94 -59.031,5.63 -22.797,-22.36 7.68,-38.87 162.472,-87.93 324.73,100.09 298.867,300.67 v 0" /><path
         id="path378"
         style="fill:#bdbcbc;fill-opacity:1;fill-rule:evenodd;stroke:none"
         d="m 683.258,2360.29 c 26.406,0 47.816,-30.66 47.816,-68.48 0,-37.83 -21.41,-68.48 -47.816,-68.48 -26.414,0 -47.824,30.65 -47.824,68.48 0,37.82 21.41,68.48 47.824,68.48" /><path
         id="path380"
         style="fill:#ffffff;fill-opacity:1;fill-rule:evenodd;stroke:none"
         d="m 671.422,2347.11 c 18.875,0 34.187,-21.92 34.187,-48.95 0,-27.03 -8.437,32.18 -42.703,8.23 -15.859,-11.1 -25.676,-35.26 -25.676,-8.23 0,27.03 15.313,48.95 34.192,48.95 v 0" /><path
         id="path382"
         style="fill:#ffffff;fill-opacity:1;fill-rule:evenodd;stroke:none"
         d="m 472.598,2305.68 c 8.496,67.52 36.136,120.35 110.664,128.57 101.054,11.16 51.433,-45.87 -17.989,-87.6 -61.355,-36.87 -105.8,-145.27 -92.675,-40.97 v 0" /><path
         id="path384"
         style="fill:#ffffff;fill-opacity:1;fill-rule:evenodd;stroke:none"
         d="m 3574.61,2247.48 c 13.88,66.62 45.67,117.07 120.62,119.29 101.63,3.03 47.59,-49.84 -24.96,-85.87 -64.11,-31.84 -117.11,-136.33 -95.66,-33.42 v 0" /><path
         id="path386"
         style="fill:#ffffff;fill-opacity:1;fill-rule:evenodd;stroke:none"
         d="m 3861.34,2290.03 c -2.18,15.57 -15.73,-68.4 -56.08,-115.39 -48.69,-56.72 -82.25,-76.18 -176.39,-67.86 -44.77,3.94 -17.29,-15.65 5.82,-27.21 123.21,-61.55 246.26,70.06 226.65,210.46 v 0" /><path
         id="path388"
         style="fill:#ffffff;fill-opacity:1;fill-rule:evenodd;stroke:none"
         d="m 743.18,2341.55 c -1.883,14.61 -13.629,-64.21 -48.59,-108.33 -42.199,-53.24 -71.274,-71.51 -152.852,-63.7 -38.793,3.7 -14.98,-14.7 5.047,-25.54 106.766,-57.79 213.387,65.78 196.395,197.57 v 0" /><path
         id="path390"
         style="fill:#4f4c4c;fill-opacity:1;fill-rule:evenodd;stroke:none"
         d="m 5324.4,3889.49 v 15.49 l -420.32,31.9 -145.34,-3.94 -274.98,-62.85 -247.47,-53.03 -9.72,-41.62 -9.3,16.47 c -10.53,22.64 -58.18,7.71 -52.88,-19.09 l 24.71,-55.69 72.64,-2.6 c -2.08,22.53 6.5,46 33.47,30.83 l 189.54,94.29 45.39,9.64 448.03,42.64 346.23,-2.44 v 0" /><path
         id="path392"
         style="fill:#e9e9e9;fill-opacity:1;fill-rule:evenodd;stroke:none"
         d="m 4904.08,3936.4 -145.34,-3.46 -274.98,-62.85 -247.47,-53.03 -9.72,-41.62 -9.3,16.47 c -10.53,22.64 -58.18,7.71 -52.88,-19.09 5.6,-12.91 57.57,4 50.73,16.7 l 10.05,-18.64 33.81,16.09 225.28,68.83 273.97,66.26 148.25,7.04 417.92,-24.12 -420.32,31.42 v 0" /><path
         id="path394"
         style="fill:#4f4c4c;fill-opacity:1;fill-rule:evenodd;stroke:none"
         d="m 3118.76,3679.98 72.61,9.41 212.13,127.67 451.22,74.74 331.8,22.88 -1.31,18.26 -428.17,-1.96 -145.34,-27.5 -227.84,-60.88 -223.91,-72.68 0.98,-23.56 -20.62,7.85 c -22.32,3.48 -53.53,-15.6 -45.18,-32.41 l 23.63,-41.82 v 0" /><path
         id="path396"
         style="fill:#e9e9e9;fill-opacity:1;fill-rule:evenodd;stroke:none"
         d="m 3095.13,3721.8 c -5.95,18.19 17.88,33.84 45.18,32.41 l 20.62,-7.86 -0.98,23.57 223.91,72.68 227.84,60.89 145.34,27.49 299.53,1.38 -291.68,-15.12 -143.5,-23.67 -235.57,-64.72 -219.06,-91.69 -21.17,5.54 c 6.02,-15.41 -42.23,-36.13 -50.46,-20.9 v 0" /><path
         id="path398"
         style="fill:#869aa4;fill-opacity:1;fill-rule:evenodd;stroke:none"
         d="m 4485.63,3770.51 244.83,91.48 -200.32,-12.7 448.04,42.64 346.22,-2.43 -347.38,-8.61 -203.93,-19.76 -204.18,-96.54 -83.28,5.92 v 0" /><path
         id="path400"
         style="fill:#869aa4;fill-opacity:1;fill-rule:evenodd;stroke:none"
         d="m 3405.83,3760.33 99.21,8.33 125.01,73.13 225,36.87 331.47,36.01 -331.81,-22.87 -451.21,-74.74 166.97,18.37 -164.64,-75.1 v 0" /></g></g></svg>